<svg width="104" height="30" viewBox="0 0 104 30" fill="none" xmlns="http://www.w3.org/2000/svg">
<mask id="mask0_4102_29917" style="mask-type:luminance" maskUnits="userSpaceOnUse" x="0" y="0" width="104" height="30">
<path d="M103.261 0.0976562H0.738281V29.9041H103.261V0.0976562Z" fill="white"/>
</mask>
<g mask="url(#mask0_4102_29917)">
<path d="M39.7248 21.8878C38.4589 21.8878 37.3738 21.5577 36.795 21.2825V19.54C37.627 19.9252 38.5493 20.1453 39.3088 20.1453C40.6109 20.1453 41.2077 19.595 41.2077 18.4027C41.2077 17.1555 40.7375 16.807 39.2365 15.9449C37.627 15.0094 36.6504 14.3124 36.6504 12.2764C36.6504 9.96525 38.061 8.73633 40.7013 8.73633C41.6056 8.73633 42.5279 8.88307 43.3236 9.13982L43.0885 10.754C42.546 10.5705 41.8046 10.4605 41.1173 10.4605C40.1769 10.4605 39.2184 10.6439 39.2184 11.9646C39.2184 12.8084 39.562 13.1018 41.0631 14.0373C42.8535 15.1378 43.7758 15.8165 43.7758 18.0176C43.7939 20.6405 42.4737 21.8878 39.7248 21.8878Z" fill="#26263F"/>
<path d="M48.9264 21.8888C47.0636 21.8888 46.2317 21.0267 46.2317 19.1007V13.7631H45.002V12.0939H46.3041L46.4668 9.74609H48.637V12.0939H50.7348L50.6624 13.7631H48.637V19.009C48.637 19.9078 48.854 20.3847 49.9753 20.3847C50.1923 20.3847 50.4093 20.348 50.5901 20.2747L50.5178 21.6136C50.1199 21.7971 49.5412 21.8888 48.9264 21.8888Z" fill="#26263F"/>
<path d="M56.0171 21.8876C52.6353 21.8876 52.165 19.9617 52.165 18.054V15.6695C52.165 13.1016 53.431 11.8359 56.0171 11.8359C58.6213 11.8359 59.8872 13.0832 59.8872 15.6695V18.054C59.8872 20.7504 58.7299 21.8876 56.0171 21.8876ZM56.0171 13.3584C54.715 13.3584 54.5704 14.3672 54.5704 15.1192V18.6593C54.5704 19.3931 54.715 20.3835 56.0171 20.3835C57.3192 20.3835 57.4639 19.3931 57.4639 18.6593V15.1192C57.482 13.927 57.0118 13.3584 56.0171 13.3584Z" fill="#26263F"/>
<path d="M61.5908 21.6679V12.0931H63.7972V13.799C64.2674 12.4233 65.262 11.873 66.4557 11.873C66.4918 11.873 66.528 11.873 66.5461 11.873V14.0924C66.5099 14.0924 66.4918 14.0924 66.4557 14.0924C65.5333 14.0924 64.5748 14.441 64.0323 14.9913L63.9962 15.0279V21.6862H61.5908V21.6679Z" fill="#26263F"/>
<path d="M72.0795 21.888C69.4029 21.888 67.8838 20.494 67.8838 18.0728V15.6516C67.8838 13.1386 69.1316 11.873 71.5731 11.873C74.051 11.873 75.2078 12.9919 75.2078 15.4132V17.3208H70.2528V18.1645C70.2528 19.5585 71.1755 20.3472 72.7667 20.3472C73.4179 20.3472 74.105 20.2189 74.937 19.907L74.8643 21.4111C74.2131 21.7046 73.1103 21.888 72.0795 21.888ZM71.5912 13.2854C70.4156 13.2854 70.2528 14.1475 70.2528 15.0096V16.1652H72.9115V15.0096C72.9115 14.1475 72.7487 13.2854 71.5912 13.2854Z" fill="#26263F"/>
<path d="M79.8301 21.8878C78.5646 21.8878 77.4798 21.5577 76.9006 21.2825V19.54C77.7326 19.9252 78.6553 20.1453 79.4145 20.1453C80.7168 20.1453 81.3133 19.595 81.3133 18.4027C81.3133 17.1555 80.8429 16.807 79.3425 15.9449C77.7326 15.0094 76.7559 14.3124 76.7559 12.2764C76.7559 9.96525 78.1669 8.73633 80.8069 8.73633C81.7116 8.73633 82.6336 8.88307 83.4295 9.13982L83.194 10.754C82.6516 10.5705 81.9104 10.4605 81.2232 10.4605C80.2825 10.4605 79.3238 10.6439 79.3238 11.9646C79.3238 12.8084 79.6681 13.1018 81.1685 14.0373C82.9592 15.1378 83.8812 15.8165 83.8812 18.0176C83.8999 20.6405 82.5615 21.8878 79.8301 21.8878Z" fill="#26263F"/>
<path d="M85.6436 21.668V9.01172H92.498V10.6809H88.2115V14.4594H91.7921V16.1285H88.2115V19.9621H92.6601V21.668H85.6436Z" fill="#26263F"/>
<path d="M98.6311 21.889C95.6469 21.889 94.001 20.1649 94.001 17.0466V13.5982C94.001 10.5167 95.6829 8.75586 98.6311 8.75586C101.669 8.75586 103.261 10.425 103.261 13.5982V17.0833C103.261 20.1465 101.561 21.889 98.6311 21.889ZM98.6311 10.4801C97.2568 10.4801 96.6776 11.2688 96.6776 13.1213V17.6519C96.6776 19.3761 97.2748 20.1649 98.6311 20.1649C100.367 20.1649 100.584 18.9176 100.584 17.707V13.1213C100.584 11.2688 100.005 10.4801 98.6311 10.4801Z" fill="#26263F"/>
<path d="M32.0405 1.8035C31.9139 1.23489 31.5522 0.739643 31.0639 0.42782C30.7203 0.207711 30.3224 0.0976562 29.9245 0.0976562C29.165 0.0976562 28.4597 0.482848 28.0618 1.14318L16.2705 20.8246C15.6375 21.8702 15.9631 23.2275 16.994 23.8511C17.3375 24.0712 17.7354 24.1813 18.1333 24.1813C18.8928 24.1813 19.5982 23.7961 19.996 23.1358L31.8053 3.49102C32.0947 2.97742 32.1852 2.39046 32.0405 1.8035Z" fill="#00CC76"/>
<path d="M19.7438 5.48905C19.6172 4.92043 19.2555 4.42519 18.7672 4.11336C18.4236 3.89326 18.0257 3.7832 17.6279 3.7832C16.8683 3.7832 16.163 4.16839 15.7651 4.82872L6.65041 19.7962C6.01745 20.8417 6.34298 22.199 7.37381 22.8226C7.71743 23.0428 8.11526 23.1528 8.51316 23.1528C9.27272 23.1528 9.97798 22.7676 10.3759 22.1073L19.4906 7.13986C19.798 6.64462 19.8884 6.05766 19.7438 5.48905Z" fill="#00CC76"/>
<path d="M9.48627 6.866C9.35971 6.29738 8.99797 5.80214 8.50967 5.49031C8.16608 5.2702 7.76819 5.16016 7.37036 5.16016C6.6108 5.16016 5.90549 5.54535 5.50763 6.20567L1.05878 13.2125C0.751338 13.7077 0.660914 14.313 0.805592 14.8817C0.932186 15.4503 1.2758 15.9455 1.76408 16.2573C2.10769 16.4774 2.50556 16.5875 2.90342 16.5875C3.66298 16.5875 4.36829 16.2023 4.76615 15.542L9.23308 8.53517C9.54051 8.0399 9.63098 7.45292 9.48627 6.866Z" fill="#00CC76"/>
<path d="M7.08373 27.4107C6.93905 26.3285 6.01673 25.5215 4.94973 25.5215C4.84122 25.5215 4.7508 25.5215 4.64229 25.5398C3.46679 25.7049 2.63489 26.8237 2.81574 28.0344C2.96041 29.1166 3.88273 29.9236 4.94973 29.9236C5.05823 29.9236 5.14866 29.9236 5.25717 29.9053C6.41459 29.7402 7.24649 28.6214 7.08373 27.4107Z" fill="#00CC76"/>
<path d="M16.738 27.4107C16.5934 26.3285 15.671 25.5215 14.604 25.5215C14.4956 25.5215 14.4051 25.5215 14.2966 25.5398C13.1211 25.7049 12.2892 26.8237 12.47 28.0344C12.6147 29.1166 13.537 29.9236 14.604 29.9236C14.7126 29.9236 14.803 29.9236 14.9115 29.9053C15.4902 29.8136 15.9965 29.5201 16.3402 29.0432C16.6838 28.5846 16.8285 27.9977 16.738 27.4107Z" fill="#00CC76"/>
<path d="M23.2518 9.26936C22.6007 10.2048 21.3529 10.4983 20.3763 9.89301C19.3997 9.28773 19.0561 8.00377 19.5625 6.97656L19.3455 7.32508L12.3828 18.7707C12.401 18.7524 12.401 18.7524 12.419 18.7341C12.4371 18.7157 12.4552 18.679 12.4733 18.6607C12.4914 18.6423 12.5094 18.624 12.5275 18.6056C12.9254 18.1654 13.5041 17.9086 14.119 17.9086C15.3307 17.9086 16.3253 18.8991 16.3253 20.1464C16.3253 20.4399 16.2711 20.7334 16.1626 20.9901L20.304 14.1301L23.2518 9.26936Z" fill="#00AA95"/>
<path d="M12.4141 18.7511C12.4321 18.7327 12.4502 18.696 12.4683 18.6777C12.4683 18.696 12.4321 18.7144 12.4141 18.7511Z" fill="#E54141"/>
</g>
</svg>
